<svg width="16" height="18" viewBox="0 0 16 18" fill="none" xmlns="http://www.w3.org/2000/svg">
<path d="M7.75842 13.3824L7.94704 13.1578C8.15481 12.9103 8.52432 12.878 8.77181 13.0858L9.22106 13.4627C9.46855 13.6705 9.50084 14.04 9.29336 14.2875L9.10475 14.5121L7.41034 16.5286C6.85421 17.1899 6.03173 17.5734 5.16838 17.5734C4.48078 17.5734 3.81348 17.3305 3.2865 16.8887L1.04482 15.0068C0.38352 14.4507 0 13.6285 0 12.762C0 12.0744 0.242915 11.41 0.687879 10.8833L4.07383 6.8503C4.07383 6.84744 4.07383 6.84744 4.07383 6.84744C4.62996 6.18614 5.45245 5.80548 6.31579 5.80548C7.00339 5.80548 7.67069 6.0484 8.19739 6.4905L9.30651 7.42101L9.52913 7.60877C9.77634 7.81682 9.80834 8.18691 9.60058 8.43439L9.2262 8.88079C9.01873 9.12827 8.64921 9.16057 8.40172 8.95309L8.1771 8.76447L7.06769 7.83368C6.85707 7.65821 6.59072 7.56161 6.31579 7.56161C5.97028 7.56161 5.64249 7.71365 5.42015 7.97714L2.03106 12.013C1.85559 12.2236 1.75613 12.4899 1.75613 12.7651C1.75613 13.1104 1.91103 13.4382 2.17452 13.6605L4.4162 15.5424C4.6271 15.721 4.89345 15.8176 5.16838 15.8176C5.51389 15.8176 5.84168 15.6653 6.06402 15.3989L7.75842 13.3824Z" fill="#EE9C04"/>
<path d="M8.24173 4.61752L8.05311 4.84214C7.84563 5.08963 7.47612 5.12192 7.22863 4.91416L6.77909 4.53721C6.53161 4.32945 6.49931 3.95993 6.70708 3.71244L6.89569 3.48782L8.5901 1.47133C9.14623 0.810034 9.96843 0.426514 10.8318 0.426514C11.5197 0.426514 12.187 0.669429 12.7137 1.11125L14.9553 2.99313C15.6169 3.54926 16.0002 4.37146 16.0002 5.23795C16.0002 5.92554 15.7572 6.58999 15.3126 7.11668L11.9263 11.1496C11.9263 11.1525 11.9263 11.1525 11.9263 11.1525C11.3702 11.8138 10.548 12.1945 9.68464 12.1945C8.99677 12.1945 8.32946 11.9516 7.80277 11.5094L6.69364 10.5789L6.47102 10.3912C6.2241 10.1831 6.1921 9.81304 6.39957 9.56555L6.77395 9.11916C6.98171 8.87167 7.35094 8.83938 7.59843 9.04686L7.82334 9.23548L8.93246 10.1663C9.14309 10.3417 9.40944 10.4383 9.68464 10.4383C10.0299 10.4383 10.3577 10.2863 10.5803 10.0228L13.9691 5.98699C14.1449 5.77636 14.2443 5.51001 14.2443 5.23481C14.2443 4.88958 14.0891 4.56179 13.8256 4.33945L11.584 2.45757C11.3733 2.27896 11.107 2.18236 10.8318 2.18236C10.4866 2.18236 10.1588 2.33468 9.93642 2.60103L8.24173 4.61752Z" fill="#EE9C04"/>
</svg>
