<svg width="35" height="36" viewBox="0 0 35 36" fill="none" xmlns="http://www.w3.org/2000/svg">
<path d="M10.4999 12.7502C10.4999 11.7837 11.2834 11.0002 12.2499 11.0002H29.7499C30.7164 11.0002 31.4999 11.7837 31.4999 12.7502V30.2503C31.4999 31.2168 30.7164 32.0003 29.7499 32.0003H12.2499C11.2834 32.0003 10.4999 31.2168 10.4999 30.2503V12.7502ZM6.99993 30.2503C6.99993 33.1498 9.35043 35.5003 12.2499 35.5003H29.7499C32.6494 35.5003 34.9999 33.1498 34.9999 30.2503V12.7502C34.9999 9.85075 32.6494 7.50024 29.7499 7.50024H12.2499C9.35043 7.50024 6.99993 9.85075 6.99993 12.7502V30.2503Z" fill="white"/>
<path d="M28 6.62517C28 5.89472 28.0086 5.27722 27.9009 4.7299L27.8992 4.72648C27.6967 3.70772 27.1981 2.77101 26.4636 2.03654C25.7291 1.30207 24.7924 0.803438 23.7737 0.600992L23.7703 0.599283C23.2229 0.491579 22.6054 0.500162 21.875 0.500162H8.74998C7.14925 0.500162 5.77244 0.496184 4.67576 0.643717C3.52859 0.798099 2.42978 1.14653 1.53806 2.03825C0.646349 2.92996 0.297915 4.02877 0.143532 5.17595C-0.00400162 6.27262 -2.47955e-05 7.64943 -2.47955e-05 9.25017V23.2502C-2.47955e-05 24.8509 -0.00400162 26.2277 0.143532 27.3244C0.297915 28.4716 0.646349 29.5704 1.53806 30.4621C2.42978 31.3538 3.52859 31.7022 4.67576 31.8566C5.77244 32.0042 7.14925 32.0002 8.74998 32.0002H10.5V28.5002H8.74998C7.05021 28.5002 5.95139 28.4962 5.14231 28.3874C4.38441 28.2853 4.1463 28.1211 4.01267 27.9875C3.87905 27.8539 3.7148 27.6157 3.61277 26.8578C3.50393 26.0488 3.49998 24.9499 3.49998 23.2502V9.25017C3.49998 7.5504 3.50393 6.45157 3.61277 5.6425C3.7148 4.8846 3.87905 4.64648 4.01267 4.51286C4.1463 4.37924 4.38441 4.21499 5.14231 4.11296C5.95139 4.00411 7.05021 4.00016 8.74998 4.00016H21.875C22.7719 4.00016 22.9671 4.00912 23.0952 4.03434L23.0969 4.03263C23.4346 4.10075 23.7437 4.26923 23.9873 4.51286C24.2309 4.75649 24.3994 5.06557 24.4675 5.40324L24.4658 5.40495C24.491 5.53305 24.5 5.72827 24.5 6.62517V7.50017H28V6.62517Z" fill="white"/>
</svg>
