<svg width="19" height="12" viewBox="0 0 19 12" fill="none" xmlns="http://www.w3.org/2000/svg">
<path d="M18.0127 3.52315C17.5127 3.09315 16.8227 2.97315 16.2127 3.21315L13.5427 4.28315L10.6727 0.69315C10.0027 -0.14685 8.60273 -0.13685 7.94273 0.69315L5.07273 4.28315L2.40273 3.21315C1.79273 2.96315 1.10273 3.08315 0.60273 3.52315C0.10273 3.95315 -0.10727 4.62315 0.0527303 5.26315L1.39273 10.6032C1.59273 11.3832 2.28273 11.9332 3.09273 11.9332H15.5327C16.3327 11.9332 17.0327 11.3932 17.2327 10.6032L18.5727 5.26315C18.7327 4.62315 18.5227 3.95315 18.0227 3.52315H18.0127ZM15.7627 10.2431C15.7327 10.3531 15.6327 10.4332 15.5227 10.4332H3.08273C2.96273 10.4332 2.87273 10.3531 2.84273 10.2431L1.50273 4.90315C1.47273 4.77315 1.54273 4.69315 1.58273 4.65315C1.61273 4.62315 1.67273 4.59315 1.74273 4.59315C1.77273 4.59315 1.80273 4.59315 1.84273 4.61315L5.02273 5.88315C5.33273 6.00315 5.68273 5.91315 5.88273 5.65315L9.10273 1.63315C9.23273 1.47315 9.36273 1.47315 9.49273 1.63315L12.7127 5.65315C12.9227 5.91315 13.2727 6.00315 13.5727 5.88315L16.7527 4.61315C16.8727 4.56315 16.9627 4.61315 17.0127 4.65315C17.0527 4.69315 17.1227 4.77315 17.0927 4.90315L15.7527 10.2431H15.7627Z" fill="#EE9C04"/>
</svg>
