<svg width="62" height="63" viewBox="0 0 62 63" fill="none" xmlns="http://www.w3.org/2000/svg">
<path fill-rule="evenodd" clip-rule="evenodd" d="M0 31.0781C0 13.9573 13.8792 0.078125 31.0001 0.078125C39.2217 0.078125 47.1067 3.34419 52.9204 9.15778C58.734 14.9714 62 22.8564 62 31.0781C62 48.1989 48.1209 62.0781 31.0001 62.0781C13.8792 62.0781 0 48.1989 0 31.0781ZM25.3272 44.3462L43.4001 33.0621C44.0764 32.629 44.4855 31.8813 44.4855 31.0781C44.4855 30.275 44.0764 29.5272 43.4001 29.0942L25.2651 17.8101C24.5508 17.3598 23.6485 17.3321 22.908 17.7377C22.1675 18.1434 21.705 18.9187 21.7002 19.7631V42.3932C21.6902 43.2581 22.1611 44.0571 22.9226 44.4671C23.6842 44.8772 24.6105 44.8306 25.3272 44.3462Z" fill="#4B158E"/>
</svg>
