<svg width="64" height="65" viewBox="0 0 64 65" fill="none" xmlns="http://www.w3.org/2000/svg">
<rect y="0.5" width="64" height="64" rx="32" fill="#01F1E3" fill-opacity="0.1"/>
<path fill-rule="evenodd" clip-rule="evenodd" d="M32.0271 21.5C32.2905 21.5 32.5317 21.5 32.736 21.5147C32.9551 21.5307 33.1951 21.568 33.44 21.6773C33.9668 21.9147 34.3877 22.3693 34.6055 22.94C34.7065 23.2053 34.7409 23.4653 34.7557 23.7027C34.7692 23.9227 34.7692 24.1853 34.7692 24.4707V40.5293C34.7692 40.8147 34.7692 41.076 34.7557 41.2973C34.7409 41.5347 34.7065 41.7947 34.6055 42.06C34.3869 42.6317 33.9677 43.0858 33.44 43.3227C33.1951 43.432 32.9551 43.4693 32.736 43.4853C32.5329 43.5 32.2905 43.5 32.0271 43.5H31.9729C31.7095 43.5 31.4683 43.5 31.264 43.4853C31.0227 43.4735 30.7848 43.4185 30.56 43.3227C30.0323 43.0858 29.6131 42.6317 29.3945 42.06C29.306 41.8165 29.2552 41.5588 29.2443 41.2973C29.2308 41.0773 29.2308 40.8147 29.2308 40.5293V24.4707C29.2308 24.1853 29.2308 23.924 29.2443 23.7027C29.2591 23.4653 29.2935 23.2053 29.3945 22.94C29.6131 22.3683 30.0323 21.9142 30.56 21.6773C30.8049 21.568 31.0449 21.5307 31.264 21.5147C31.4671 21.5 31.7095 21.5 31.9729 21.5H32.0271ZM32.8985 23.7013C32.8671 23.6234 32.8094 23.5614 32.7372 23.528C32.6955 23.5185 32.6531 23.5127 32.6105 23.5107C32.4071 23.5005 32.2035 23.497 32 23.5C31.7009 23.5 31.5225 23.5 31.3895 23.5107C31.347 23.5123 31.3046 23.5176 31.2628 23.5267C31.1908 23.5607 31.1336 23.6231 31.1028 23.7013C31.094 23.7466 31.0886 23.7925 31.0868 23.8387C31.0774 24.059 31.0741 24.2795 31.0769 24.5V40.5C31.0769 40.824 31.0769 41.0173 31.0868 41.1613C31.0917 41.2507 31.0991 41.288 31.1015 41.2987C31.1329 41.3766 31.1906 41.4386 31.2628 41.472C31.3045 41.4815 31.3469 41.4873 31.3895 41.4893C31.5225 41.5 31.7009 41.5 32 41.5C32.2991 41.5 32.4775 41.5 32.6105 41.4893C32.6531 41.4878 32.6955 41.4824 32.7372 41.4733C32.8092 41.4393 32.8664 41.3769 32.8972 41.2987C32.906 41.2534 32.9114 41.2075 32.9132 41.1613C32.9231 41.0173 32.9231 40.824 32.9231 40.5V24.5C32.9231 24.176 32.9231 23.9827 32.9132 23.8387C32.9118 23.7925 32.9069 23.7466 32.8985 23.7013ZM41.2578 26.8333H41.2037C40.9403 26.8333 40.6991 26.8333 40.4948 26.848C40.2757 26.864 40.0357 26.9013 39.7908 27.0107C39.2631 27.2475 38.8438 27.7017 38.6252 28.2733C38.5243 28.5387 38.4898 28.7987 38.4751 29.036C38.4615 29.256 38.4615 29.5187 38.4615 29.804V40.5293C38.4615 40.8147 38.4615 41.076 38.4751 41.2973C38.4898 41.5347 38.5243 41.7947 38.6252 42.06C38.8443 42.6307 39.2628 43.0867 39.7908 43.3227C40.0357 43.432 40.2757 43.4693 40.4948 43.4853C40.6978 43.5 40.9403 43.5 41.2037 43.5H41.2578C41.5212 43.5 41.7625 43.5 41.9668 43.4853C42.1858 43.4693 42.4258 43.432 42.6708 43.3227C43.1985 43.0858 43.6177 42.6317 43.8363 42.06C43.9372 41.7947 43.9717 41.5347 43.9865 41.2973C44 41.0773 44 40.8147 44 40.5293V29.804C44 29.5187 44 29.2573 43.9865 29.036C43.9755 28.7746 43.9248 28.5169 43.8363 28.2733C43.6177 27.7017 43.1985 27.2475 42.6708 27.0107C42.446 26.9148 42.2081 26.8598 41.9668 26.848C41.7637 26.8333 41.5212 26.8333 41.2578 26.8333ZM41.968 28.86C42.0399 28.894 42.0972 28.9565 42.128 29.0347C42.1368 29.0799 42.1422 29.1258 42.144 29.172C42.1538 29.316 42.1538 29.5093 42.1538 29.8333V40.5C42.1538 40.824 42.1538 41.0173 42.144 41.1613C42.1426 41.2075 42.1376 41.2534 42.1292 41.2987C42.0979 41.3766 42.0402 41.4386 41.968 41.472C41.9263 41.4815 41.8839 41.4873 41.8412 41.4893C41.6379 41.4995 41.4343 41.5031 41.2308 41.5C40.9317 41.5 40.7532 41.5 40.6203 41.4893C40.5777 41.4878 40.5353 41.4824 40.4935 41.4733C40.4216 41.4393 40.3644 41.3769 40.3335 41.2987C40.3247 41.2534 40.3194 41.2075 40.3175 41.1613C40.3081 40.941 40.3049 40.7205 40.3077 40.5V29.8333C40.3077 29.5093 40.3077 29.316 40.3175 29.172C40.319 29.1259 40.3239 29.0799 40.3323 29.0347C40.3637 28.9567 40.4214 28.8947 40.4935 28.8613C40.5353 28.8519 40.5777 28.8461 40.6203 28.844C40.8237 28.8338 41.0272 28.8303 41.2308 28.8333C41.5298 28.8333 41.7083 28.8333 41.8412 28.844C41.9237 28.8493 41.9582 28.8573 41.968 28.86ZM22.7963 33.5H22.7422C22.4788 33.5 22.2375 33.5 22.0332 33.5147C21.8142 33.5307 21.5742 33.568 21.3292 33.6773C20.8015 33.9142 20.3823 34.3683 20.1637 34.94C20.0628 35.2053 20.0283 35.4653 20.0135 35.7027C20 35.9227 20 36.1853 20 36.4707V40.5293C20 40.8147 20 41.076 20.0135 41.2973C20.0283 41.5347 20.0628 41.7947 20.1637 42.06C20.3828 42.6307 20.8025 43.0867 21.3292 43.3227C21.5742 43.432 21.8142 43.4693 22.0332 43.4853C22.2363 43.5 22.4788 43.5 22.7422 43.5H22.7963C23.0597 43.5 23.3009 43.5 23.5052 43.4853C23.7243 43.4693 23.9643 43.432 24.2092 43.3227C24.7369 43.0858 25.1562 42.6317 25.3748 42.06C25.4757 41.7947 25.5102 41.5347 25.5249 41.2973C25.5385 41.0773 25.5385 40.8147 25.5385 40.5293V36.4707C25.5385 36.1853 25.5385 35.924 25.5249 35.7027C25.514 35.4412 25.4633 35.1835 25.3748 34.94C25.1562 34.3683 24.7369 33.9142 24.2092 33.6773C23.9844 33.5815 23.7466 33.5265 23.5052 33.5147C23.3022 33.5 23.0597 33.5 22.7963 33.5ZM23.5065 35.5267C23.5784 35.5607 23.6356 35.6231 23.6665 35.7013C23.6752 35.7466 23.6806 35.7925 23.6825 35.8387C23.6923 35.9827 23.6923 36.176 23.6923 36.5V40.5C23.6923 40.824 23.6923 41.0173 23.6825 41.1613C23.681 41.2075 23.676 41.2534 23.6677 41.2987C23.6363 41.3766 23.5786 41.4386 23.5065 41.472C23.4647 41.4815 23.4223 41.4873 23.3797 41.4893C23.1763 41.4995 22.9728 41.5031 22.7692 41.5C22.4702 41.5 22.2917 41.5 22.1588 41.4893C22.1162 41.4878 22.0738 41.4824 22.032 41.4733C21.9601 41.4393 21.9028 41.3769 21.872 41.2987C21.8633 41.2534 21.8579 41.2075 21.856 41.1613C21.8466 40.941 21.8433 40.7205 21.8462 40.5V36.5C21.8462 36.176 21.8462 35.9827 21.856 35.8387C21.8575 35.7925 21.8624 35.7466 21.8708 35.7013C21.9021 35.6234 21.9598 35.5614 22.032 35.528C22.0737 35.5185 22.1161 35.5127 22.1588 35.5107C22.2917 35.5 22.4702 35.5 22.7692 35.5C23.0683 35.5 23.2468 35.5 23.3797 35.5107C23.4223 35.5122 23.4647 35.5176 23.5065 35.5267Z" fill="#01F1E3"/>
</svg>
