<svg width="24" height="24" viewBox="0 0 24 24" fill="none" xmlns="http://www.w3.org/2000/svg">
<g clip-path="url(#clip0_831_309)">
<path fill-rule="evenodd" clip-rule="evenodd" d="M13.2 20.4C13.2 21.0624 12.6629 21.6 12 21.6C11.3371 21.6 10.8 21.0624 10.8 20.4V3.6C10.8 2.9376 11.3371 2.4 12 2.4C12.6629 2.4 13.2 2.9376 13.2 3.6V20.4ZM13.2 0H10.8C9.4743 0 8.40001 1.074 8.40001 2.4V21.6C8.40001 22.926 9.4743 24 10.8 24H13.2C14.5257 24 15.6 22.926 15.6 21.6V2.4C15.6 1.074 14.5257 0 13.2 0ZM4.80001 20.4C4.80001 21.0624 4.26285 21.6 3.59999 21.6C2.93714 21.6 2.40001 21.0624 2.40001 20.4V8.4C2.40001 7.7376 2.93714 7.2 3.59999 7.2C4.26285 7.2 4.80001 7.7376 4.80001 8.4V20.4ZM4.80001 4.8H2.40001C1.07429 4.8 0 5.874 0 7.2V21.6C0 22.926 1.07429 24 2.40001 24H4.80001C6.12573 24 7.19999 22.926 7.19999 21.6V7.2C7.19999 5.874 6.12573 4.8 4.80001 4.8ZM21.6 20.4C21.6 21.0624 21.0629 21.6 20.4 21.6C19.7372 21.6 19.2 21.0624 19.2 20.4V15.6C19.2 14.9376 19.7372 14.4 20.4 14.4C21.0629 14.4 21.6 14.9376 21.6 15.6V20.4ZM21.6 12H19.2C17.8743 12 16.8 13.074 16.8 14.4V21.6C16.8 22.926 17.8743 24 19.2 24H21.6C22.9257 24 24 22.926 24 21.6V14.4C24 13.074 22.9257 12 21.6 12Z" fill="#7D40FF"/>
</g>
<defs>
<clipPath id="clip0_831_309">
<rect width="24" height="24" fill="white"/>
</clipPath>
</defs>
</svg>
