<svg width="64" height="65" viewBox="0 0 64 65" fill="none" xmlns="http://www.w3.org/2000/svg">
<rect y="0.5" width="64" height="64" rx="32" fill="#01F1E3" fill-opacity="0.1"/>
<path d="M37.2878 21.3283C36.1598 19.6313 34.1856 18.5 32.0705 18.5C29.9554 18.5 27.9813 19.6313 26.8532 21.3283C26.2891 21.1869 25.5841 21.0455 25.0201 21.0455C22.3409 21.0455 20.2258 23.1667 20.2258 25.7121C20.2258 28.2576 22.3409 30.3788 25.0201 30.3788C26.0071 30.3788 26.9942 30.096 27.8402 29.3889C28.9683 30.3788 30.5194 30.9444 32.0705 30.9444C33.6216 30.9444 35.1727 30.3788 36.3008 29.3889C37.1468 29.9545 38.1339 30.3788 39.1209 30.3788C41.8001 30.3788 43.9152 28.2576 43.9152 25.7121C43.9152 23.1667 41.8001 21.0455 39.1209 21.0455C38.5569 21.0455 37.8519 21.1869 37.2878 21.3283ZM25.0201 27.4091C23.892 27.4091 23.0459 26.702 23.0459 25.7121C23.0459 24.7222 23.892 23.8737 25.0201 23.8737C25.3021 23.8737 25.5841 23.8737 25.7251 24.0152V24.7222C25.7251 25.1465 25.7251 25.4293 25.8661 25.8535V26.1364C25.8661 26.4192 26.0071 26.702 26.1481 26.9848V27.1263C25.8661 27.4091 25.4431 27.4091 25.0201 27.4091ZM32.0705 28.1162C30.8014 28.1162 29.8144 27.5505 29.1093 26.5606C28.6863 25.9949 28.5453 25.4293 28.5453 24.7222C28.5453 24.4394 28.5453 24.0152 28.6863 23.7323C29.1093 22.3182 30.5194 21.3283 32.0705 21.3283C33.6216 21.3283 35.0317 22.3182 35.4547 23.7323C35.5957 24.0152 35.5957 24.4394 35.5957 24.7222C35.5957 25.2879 35.4547 25.9949 35.0317 26.5606C34.3266 27.5505 33.3396 28.1162 32.0705 28.1162ZM41.0951 25.7121C41.0951 26.702 40.249 27.5505 39.1209 27.5505C38.6979 27.5505 38.2749 27.4091 37.9929 27.2677V27.1263C38.1339 26.8434 38.1339 26.5606 38.2749 26.4192C38.2749 26.2778 38.2749 26.2778 38.4159 26.1364C38.4159 25.7121 38.5569 25.4293 38.5569 25.0051V24.298C38.5569 23.8737 38.8389 23.8737 39.1209 23.8737C40.249 23.8737 41.0951 24.7222 41.0951 25.7121ZM45.6073 35.1869C45.0433 32.7828 42.9282 30.9444 40.672 30.9444H37.5698C36.3008 30.9444 35.1727 31.5101 34.1856 32.3586H29.9554C28.9683 31.5101 27.8402 30.9444 26.5712 30.9444H23.469C21.2128 30.9444 19.0977 32.6414 18.5337 35.1869L18.1106 36.8838C17.8286 37.8737 18.1106 39.005 18.6747 39.8535C19.2387 40.5606 20.0848 40.9848 20.9308 40.9848V41.1263C20.5078 42.399 20.7898 43.8131 21.6359 44.9444C22.4819 45.9343 23.61 46.5 25.0201 46.5H39.1209C40.39 46.5 41.6591 45.9343 42.3641 44.803C43.2102 43.6717 43.4922 42.2576 43.0692 40.9848V40.8434C43.9152 40.8434 44.7613 40.4192 45.3253 39.7121C45.8894 38.8636 46.1714 37.8737 45.8894 36.7424L45.6073 35.1869ZM20.9308 38.0152C20.7898 37.8737 20.7898 37.7323 20.7898 37.4495L21.2128 35.7525C21.4948 34.6212 22.4819 33.7727 23.469 33.7727H24.8791L24.738 33.9141C24.597 34.0556 24.456 34.197 24.174 34.3384L23.751 34.7626L23.328 35.1869C23.187 35.3283 23.0459 35.4697 22.9049 35.7525C22.7639 35.8939 22.6229 36.1768 22.6229 36.3182C22.4819 36.4596 22.3409 36.7424 22.3409 36.8838C22.1999 37.0253 22.1999 37.3081 22.0589 37.4495C22.0589 37.5909 21.9179 37.7323 21.9179 37.8737L20.9308 38.0152ZM40.249 43.1061C40.108 43.3889 39.685 43.6717 39.1209 43.6717H25.0201C24.456 43.6717 24.174 43.3889 24.033 43.1061C23.61 42.8232 23.61 42.2576 23.61 41.8333L24.174 39.8535L24.315 39.1465C25.0201 36.7424 26.9942 35.1869 29.2503 35.1869H34.8907C37.1468 35.1869 39.1209 36.7424 39.826 39.1465L39.967 39.8535L40.531 41.8333C40.531 42.2576 40.531 42.8232 40.249 43.1061ZM43.2102 38.0152H42.3641C42.3641 37.8737 42.2231 37.7323 42.2231 37.5909C42.0821 37.3081 42.0821 37.1667 41.9411 37.0253C41.8001 36.8838 41.8001 36.601 41.6591 36.4596C41.5181 36.3182 41.3771 36.0354 41.2361 35.8939L40.813 35.4697C40.672 35.3283 40.531 35.0455 40.39 34.904L39.967 34.4798C39.826 34.3384 39.544 34.197 39.403 34.0556L39.262 33.9141H40.672C41.6591 33.9141 42.6462 34.7626 42.9282 35.8939L43.3512 37.5909C43.3512 37.7323 43.3512 37.8737 43.2102 38.0152Z" fill="#01F1E3"/>
</svg>
