<svg width="16" height="16" viewBox="0 0 16 16" fill="none" xmlns="http://www.w3.org/2000/svg">
<path d="M15.9479 13.5405C15.7082 12.5174 15.2641 11.5511 14.6411 10.6974C14.0181 9.84365 13.2287 9.11955 12.3184 8.56693C12.9343 7.7774 13.3127 6.83472 13.4108 5.84541C13.509 4.8561 13.3231 3.85958 12.874 2.96845C12.4249 2.07732 11.7306 1.3271 10.8695 0.80254C10.0084 0.277983 9.01482 0 8.00106 0C6.98731 0 5.99376 0.277983 5.13266 0.80254C4.27157 1.3271 3.57725 2.07732 3.12816 2.96845C2.67907 3.85958 2.49311 4.8561 2.59128 5.84541C2.68945 6.83472 3.06785 7.7774 3.68371 8.56693C2.77267 9.11863 1.98254 9.84236 1.35924 10.6961C0.735941 11.5498 0.291898 12.5164 0.052916 13.5398C-0.0169331 13.835 -0.0176406 14.1419 0.0508467 14.4374C0.119334 14.7329 0.255235 15.0093 0.448336 15.2459C0.638136 15.4816 0.880037 15.6719 1.15579 15.8025C1.43155 15.9331 1.73396 16.0007 2.04021 16H13.9572C14.2634 16.0007 14.5658 15.9331 14.8416 15.8025C15.1173 15.6719 15.3592 15.4816 15.549 15.2459C15.7427 15.0097 15.8792 14.7335 15.9483 14.4381C16.0174 14.1427 16.0172 13.8358 15.9479 13.5405ZM7.99869 1.34437C8.80494 1.34437 9.59309 1.57879 10.2635 2.01798C10.9338 2.45718 11.4563 3.08142 11.7649 3.81178C12.0734 4.54213 12.1541 5.34579 11.9969 6.12113C11.8396 6.89647 11.4513 7.60867 10.8812 8.16766C10.3111 8.72665 9.58473 9.10732 8.79397 9.26155C8.00321 9.41577 7.18356 9.33662 6.43868 9.03409C5.6938 8.73157 5.05713 8.21927 4.6092 7.56197C4.16127 6.90467 3.92219 6.13189 3.92219 5.34136C3.92327 4.28162 4.3531 3.26558 5.11736 2.51623C5.88162 1.76688 6.91786 1.34543 7.99869 1.34437ZM14.4864 14.4165C14.4236 14.4952 14.3433 14.5588 14.2515 14.6023C14.1598 14.6459 14.0591 14.6682 13.9572 14.6677H2.04021C1.93828 14.6682 1.83758 14.6459 1.74584 14.6023C1.65409 14.5588 1.57374 14.4952 1.51094 14.4165C1.44523 14.3362 1.39888 14.2423 1.37535 14.142C1.35182 14.0416 1.35172 13.9374 1.37506 13.837C1.58596 12.9345 1.9883 12.0856 2.55592 11.3456C3.12354 10.6057 3.8437 9.9912 4.66955 9.54219C5.62055 10.2737 6.79436 10.6713 8.0031 10.6713C9.21185 10.6713 10.3857 10.2737 11.3367 9.54219C12.1607 9.99303 12.879 10.6084 13.4452 11.3486C14.0114 12.0887 14.4129 12.9371 14.6237 13.839C14.6466 13.9391 14.6462 14.0431 14.6224 14.1431C14.5986 14.2431 14.5522 14.3366 14.4864 14.4165Z" fill="#EE9C04"/>
</svg>
