<svg width="38" height="28" viewBox="0 0 38 28" fill="none" xmlns="http://www.w3.org/2000/svg">
<path d="M33.3111 3.44968C28.6547 -0.0183559 24.1939 0.0787964 24.1939 0.0787964L23.7379 0.59721C29.2735 2.2504 31.8459 4.68121 31.8459 4.68121C23.9263 0.34079 13.8381 0.371848 5.60046 4.68121C5.60046 4.68121 8.27049 2.1206 14.1317 0.467408L13.8061 0.0783985C13.8061 0.0783985 9.3777 -0.0187546 4.68885 3.44928C4.68885 3.44928 0 11.8442 0 22.1839C0 22.1839 2.73523 26.8512 9.9317 27.0781C9.9317 27.0781 11.1365 25.6519 12.1133 24.4204C7.97768 23.1888 6.41487 20.6282 6.41487 20.6282C9.01289 22.2464 11.6401 23.2593 14.9138 23.9019C20.2402 24.9933 26.8655 23.8713 31.8135 20.6282C31.8135 20.6282 30.1855 23.2537 25.9199 24.453C26.8967 25.6523 28.0691 27.0459 28.0691 27.0459C35.2648 26.8193 38 22.152 38 22.1843C38 11.8446 33.3111 3.44968 33.3111 3.44968ZM12.9269 19.1701C11.1033 19.1701 9.6057 17.5818 9.6057 15.6045C9.7389 10.8695 16.1486 10.8843 16.2486 15.6045C16.2482 17.5818 14.783 19.1701 12.9269 19.1701ZM24.8123 19.1701C22.9886 19.1701 21.491 17.5818 21.491 15.6045C21.6374 10.8787 27.9671 10.8767 28.1339 15.6045C28.1335 17.5818 26.6683 19.1701 24.8123 19.1701Z" fill="white"/>
</svg>
