<svg width="81" height="81" viewBox="0 0 81 81" fill="none" xmlns="http://www.w3.org/2000/svg">
<rect x="1" y="0.578125" width="79" height="79" rx="11.5" fill="url(#paint0_linear_11_1907)"/>
<rect x="1" y="0.578125" width="79" height="79" rx="11.5" stroke="url(#paint1_linear_11_1907)"/>
<path d="M45.5 37.6781H35.5C34.1739 37.6781 32.9021 37.1724 31.9645 36.2722C31.0268 35.3721 30.5 34.1512 30.5 32.8781C30.5 31.6051 31.0268 30.3842 31.9645 29.484C32.9021 28.5838 34.1739 28.0781 35.5 28.0781H48C48.663 28.0781 49.2989 28.331 49.7678 28.7811C50.2366 29.2312 50.5 29.8416 50.5 30.4781C50.5 31.1146 50.7634 31.7251 51.2322 32.1752C51.7011 32.6253 52.337 32.8781 53 32.8781C53.663 32.8781 54.2989 32.6253 54.7678 32.1752C55.2366 31.7251 55.5 31.1146 55.5 30.4781C55.5 28.5686 54.7098 26.7372 53.3033 25.387C51.8968 24.0367 49.9891 23.2781 48 23.2781H43V18.4781C43 17.8416 42.7366 17.2312 42.2678 16.7811C41.7989 16.331 41.163 16.0781 40.5 16.0781C39.837 16.0781 39.2011 16.331 38.7322 16.7811C38.2634 17.2312 38 17.8416 38 18.4781V23.2781H35.5C32.8478 23.2781 30.3043 24.2896 28.4289 26.0899C26.5536 27.8902 25.5 30.332 25.5 32.8781C25.5 35.4242 26.5536 37.866 28.4289 39.6664C30.3043 41.4667 32.8478 42.4781 35.5 42.4781H45.5C46.8261 42.4781 48.0979 42.9838 49.0355 43.884C49.9732 44.7842 50.5 46.0051 50.5 47.2781C50.5 48.5512 49.9732 49.7721 49.0355 50.6722C48.0979 51.5724 46.8261 52.0781 45.5 52.0781H33C32.337 52.0781 31.7011 51.8253 31.2322 51.3752C30.7634 50.9251 30.5 50.3146 30.5 49.6781C30.5 49.0416 30.2366 48.4312 29.7678 47.9811C29.2989 47.531 28.663 47.2781 28 47.2781C27.337 47.2781 26.7011 47.531 26.2322 47.9811C25.7634 48.4312 25.5 49.0416 25.5 49.6781C25.5 51.5877 26.2902 53.419 27.6967 54.7693C29.1032 56.1196 31.0109 56.8781 33 56.8781H38V61.6781C38 62.3146 38.2634 62.9251 38.7322 63.3752C39.2011 63.8253 39.837 64.0781 40.5 64.0781C41.163 64.0781 41.7989 63.8253 42.2678 63.3752C42.7366 62.9251 43 62.3146 43 61.6781V56.8781H45.5C48.1522 56.8781 50.6957 55.8667 52.5711 54.0663C54.4464 52.266 55.5 49.8242 55.5 47.2781C55.5 44.732 54.4464 42.2902 52.5711 40.4899C50.6957 38.6896 48.1522 37.6781 45.5 37.6781Z" fill="white"/>
<defs>
<linearGradient id="paint0_linear_11_1907" x1="0.5" y1="40.0781" x2="80.5" y2="40.0781" gradientUnits="userSpaceOnUse">
<stop stop-color="#150F3E"/>
<stop offset="0.5" stop-color="#200F46"/>
<stop offset="1" stop-color="#3A126F"/>
</linearGradient>
<linearGradient id="paint1_linear_11_1907" x1="0.5" y1="40.0781" x2="80.5" y2="40.0781" gradientUnits="userSpaceOnUse">
<stop stop-color="#324AB9"/>
<stop offset="1" stop-color="#4B158E"/>
</linearGradient>
</defs>
</svg>
