<svg width="16" height="18" viewBox="0 0 16 18" fill="none" xmlns="http://www.w3.org/2000/svg">
<path d="M8.47661 8.05882C4.54536 8.05882 1.46387 6.47096 1.46387 4.4435C1.46387 2.41605 4.54536 0.828186 8.47661 0.828186C12.4079 0.828186 15.4877 2.41659 15.4877 4.4435C15.4877 6.47041 12.4084 8.05882 8.47661 8.05882ZM8.47661 1.91763C4.98658 1.91763 2.55331 3.24893 2.55331 4.4435C2.55331 5.63808 4.98495 6.96938 8.47498 6.96938C11.965 6.96938 14.3983 5.63862 14.3983 4.4435C14.3983 3.24838 11.9661 1.91763 8.47661 1.91763Z" fill="#F0B90B"/>
<path d="M8.4777 10.2137C4.54699 10.2137 1.46714 8.6264 1.46387 6.59894V4.44348H2.55331V6.59731C2.55331 7.79243 4.98604 9.12482 8.47661 9.12482C11.9024 9.12482 14.3095 7.842 14.3972 6.66377V4.44348H15.4866V6.59731C15.4904 8.62531 12.4128 10.2137 8.4777 10.2137Z" fill="#F0B90B"/>
<path d="M8.98699 15.0154C5.27853 15.0154 2.27276 13.5877 1.99658 11.6926L3.07459 11.5352C3.24345 12.6889 5.65983 13.9238 8.98754 13.9238C12.4781 13.9238 14.9108 12.592 14.9108 11.3963C14.9108 10.7895 14.3078 10.168 13.256 9.69024L13.707 8.6983C15.1859 9.36994 16.0003 10.3287 16.0003 11.3963C15.9997 13.427 12.9188 15.0154 8.98699 15.0154Z" fill="#F0B90B"/>
<path d="M8.98768 17.1698C5.05534 17.1698 1.97493 15.5808 1.97493 13.5528V11.606H3.06438V13.5528C3.06438 14.7485 5.49493 16.0803 8.98768 16.0803C10.4786 16.112 11.9589 15.8223 13.328 15.2311C14.3347 14.7572 14.911 14.146 14.911 13.5528V11.399H16.0004V13.5528C16.0004 14.5998 15.2171 15.546 13.7932 16.216C12.2786 16.8757 10.6395 17.2011 8.98768 17.1698ZM12.1182 9.1335V8.58878L11.7946 8.78107L11.568 8.82192C10.1439 9.48673 8.5854 9.81352 7.01415 9.77682C3.52358 9.77682 1.09085 8.44498 1.09085 7.24931C1.09085 6.74218 1.5141 6.21816 2.2827 5.77366L1.73798 4.83075C0.618033 5.47788 0.00195312 6.3369 0.00195312 7.24931C0.00195312 9.27731 3.08235 10.8663 7.0147 10.8663C8.88842 10.9238 10.7444 10.4884 12.3971 9.6036L12.658 9.44454V9.13841L12.1182 9.1335Z" fill="#F0B90B"/>
<path d="M7.01274 13.0206C3.0804 13.0206 0 11.4316 0 9.40365V7.24982H1.08944V9.40419C1.08944 10.5993 3.52217 11.9317 7.01274 11.9317C10.5033 11.9317 12.9355 10.5999 12.9355 9.40419V8.54952H14.0249V9.40365C14.0255 11.4316 10.9451 13.0206 7.01274 13.0206Z" fill="#F0B90B"/>
</svg>
