<svg width="81" height="81" viewBox="0 0 81 81" fill="none" xmlns="http://www.w3.org/2000/svg">
<rect x="1" y="0.578125" width="79" height="79" rx="11.5" fill="#150F3E"/>
<rect x="1" y="0.578125" width="79" height="79" rx="11.5" stroke="url(#paint0_linear_11_1952)"/>
<mask id="mask0_11_1952" style="mask-type:luminance" maskUnits="userSpaceOnUse" x="16" y="15" width="49" height="50">
<path d="M65 15.5781H16V64.5781H65V15.5781Z" fill="white"/>
</mask>
<g mask="url(#mask0_11_1952)">
<path d="M39.853 51.819L40.3583 51.2173C40.9149 50.5542 41.9049 50.4677 42.5679 51.0243L43.7715 52.0342C44.4345 52.5908 44.521 53.5807 43.9652 54.2438L43.4599 54.8455L38.9205 60.2478C37.4306 62.0195 35.2271 63.0469 32.9142 63.0469C31.0721 63.0469 29.2843 62.3961 27.8725 61.2125L21.867 56.1708C20.0953 54.6809 19.0678 52.4782 19.0678 50.1569C19.0678 48.3148 19.7186 46.5347 20.9107 45.1236L29.9818 34.3191C29.9818 34.3115 29.9818 34.3115 29.9818 34.3115C31.4717 32.5398 33.6752 31.52 35.9881 31.52C37.8302 31.52 39.618 32.1708 41.029 33.3552L44.0004 35.8481L44.5968 36.3511C45.2591 36.9085 45.3448 37.9 44.7882 38.563L43.7853 39.7589C43.2294 40.4219 42.2395 40.5085 41.5764 39.9526L40.9747 39.4473L38.0025 36.9537C37.4382 36.4836 36.7247 36.2248 35.9881 36.2248C35.0625 36.2248 34.1843 36.6321 33.5887 37.338L24.5091 48.1502C24.039 48.7144 23.7726 49.428 23.7726 50.1653C23.7726 51.0902 24.1876 51.9683 24.8935 52.564L30.899 57.6056C31.4641 58.0841 32.1776 58.3429 32.9142 58.3429C33.8398 58.3429 34.718 57.9348 35.3136 57.2213L39.853 51.819Z" fill="white"/>
<path d="M41.1477 28.3373L40.6424 28.939C40.0866 29.6021 39.0966 29.6886 38.4336 29.132L37.2292 28.1221C36.5662 27.5655 36.4797 26.5756 37.0363 25.9125L37.5416 25.3108L42.081 19.9085C43.5709 18.1368 45.7736 17.1094 48.0866 17.1094C49.9294 17.1094 51.7172 17.7602 53.1282 18.9438L59.1338 23.9855C60.9062 25.4754 61.9329 27.6781 61.9329 29.9994C61.9329 31.8415 61.2821 33.6216 60.0908 35.0327L51.0189 45.8372C51.0189 45.8448 51.0189 45.8448 51.0189 45.8448C49.529 47.6165 47.3263 48.6363 45.0133 48.6363C43.1705 48.6363 41.3828 47.9855 39.9717 46.8011L37.0003 44.3082L36.4039 43.8052C35.7424 43.2478 35.6566 42.2563 36.2125 41.5933L37.2155 40.3974C37.7721 39.7344 38.7613 39.6478 39.4243 40.2037L40.0268 40.709L42.9982 43.2026C43.5625 43.6727 44.2761 43.9315 45.0133 43.9315C45.9382 43.9315 46.8164 43.5242 47.4128 42.8183L56.4916 32.0061C56.9625 31.4419 57.2289 30.7283 57.2289 29.991C57.2289 29.0661 56.8132 28.188 56.1073 27.5923L50.1017 22.5507C49.5374 22.0722 48.8239 21.8134 48.0866 21.8134C47.1617 21.8134 46.2835 22.2215 45.6879 22.935L41.1477 28.3373Z" fill="white"/>
</g>
<defs>
<linearGradient id="paint0_linear_11_1952" x1="0.5" y1="40.0781" x2="80.5" y2="40.0781" gradientUnits="userSpaceOnUse">
<stop stop-color="#324AB9"/>
<stop offset="1" stop-color="#4B158E"/>
</linearGradient>
</defs>
</svg>
