<svg width="80" height="81" viewBox="0 0 80 81" fill="none" xmlns="http://www.w3.org/2000/svg">
<rect x="0.5" y="0.578125" width="79" height="79" rx="11.5" fill="url(#paint0_linear_11_1892)"/>
<rect x="0.5" y="0.578125" width="79" height="79" rx="11.5" stroke="url(#paint1_linear_11_1892)"/>
<circle cx="40" cy="40.0781" r="23.5" fill="#050513" stroke="white" stroke-width="3"/>
<rect x="9.41891" y="40.5781" width="24" height="24" rx="12" fill="#050513"/>
<rect x="9.41891" y="40.5781" width="24" height="24" rx="12" stroke="white"/>
<path d="M17.9865 56.5781V55.1861H19.0905V49.5701H17.9865V48.1781H22.3065C22.8185 48.1781 23.2625 48.2661 23.6385 48.4421C24.0225 48.6101 24.3185 48.8541 24.5265 49.1741C24.7425 49.4861 24.8505 49.8621 24.8505 50.3021V50.4221C24.8505 50.8061 24.7785 51.1221 24.6345 51.3701C24.4905 51.6101 24.3185 51.7981 24.1185 51.9341C23.9265 52.0621 23.7425 52.1541 23.5665 52.2101V52.4261C23.7425 52.4741 23.9345 52.5661 24.1425 52.7021C24.3505 52.8301 24.5265 53.0181 24.6705 53.2661C24.8225 53.5141 24.8985 53.8381 24.8985 54.2381V54.3581C24.8985 54.8221 24.7905 55.2221 24.5745 55.5581C24.3585 55.8861 24.0585 56.1381 23.6745 56.3141C23.2985 56.4901 22.8585 56.5781 22.3545 56.5781H17.9865ZM20.6745 55.1381H22.1625C22.5065 55.1381 22.7825 55.0541 22.9905 54.8861C23.2065 54.7181 23.3145 54.4781 23.3145 54.1661V54.0461C23.3145 53.7341 23.2105 53.4941 23.0025 53.3261C22.7945 53.1581 22.5145 53.0741 22.1625 53.0741H20.6745V55.1381ZM20.6745 51.6341H22.1385C22.4665 51.6341 22.7345 51.5501 22.9425 51.3821C23.1585 51.2141 23.2665 50.9821 23.2665 50.6861V50.5661C23.2665 50.2621 23.1625 50.0301 22.9545 49.8701C22.7465 49.7021 22.4745 49.6181 22.1385 49.6181H20.6745V51.6341Z" fill="white"/>
<rect x="46.5811" y="15.5781" width="24" height="24" rx="12" fill="#050513"/>
<rect x="46.5811" y="15.5781" width="24" height="24" rx="12" stroke="white"/>
<path d="M54.9944 31.5781L57.2024 23.1781H59.9624L62.1704 31.5781H60.5384L60.0824 29.7301H57.0824L56.6264 31.5781H54.9944ZM57.4544 28.2661H59.7104L58.6904 24.1741H58.4744L57.4544 28.2661Z" fill="white"/>
<defs>
<linearGradient id="paint0_linear_11_1892" x1="0" y1="40.0781" x2="80" y2="40.0781" gradientUnits="userSpaceOnUse">
<stop stop-color="#150F3E"/>
<stop offset="0.5" stop-color="#200F46"/>
<stop offset="1" stop-color="#3A126F"/>
</linearGradient>
<linearGradient id="paint1_linear_11_1892" x1="0" y1="40.0781" x2="80" y2="40.0781" gradientUnits="userSpaceOnUse">
<stop stop-color="#324AB9"/>
<stop offset="1" stop-color="#4B158E"/>
</linearGradient>
</defs>
</svg>
