<svg width="20" height="16" viewBox="0 0 20 16" fill="none" xmlns="http://www.w3.org/2000/svg">
<path d="M5.70698 8.70692L3.70705 10.7068C3.51169 10.9022 3.25585 10.9999 3.00001 10.9999C2.74417 10.9999 2.48833 10.9022 2.29297 10.7068L0.293041 8.70692C-0.0976804 8.3162 -0.0976804 7.68356 0.293041 7.29284C0.683763 6.90213 1.31641 6.90213 1.70713 7.29284L2.02009 7.6058C2.22721 3.37822 5.72162 0 9.99988 0C12.1668 0 14.1963 0.852476 15.7138 2.40143C16.1005 2.79551 16.0947 3.42886 15.7001 3.8155C15.3046 4.20022 14.6717 4.19686 14.2861 3.80086C13.1473 2.63951 11.6259 1.99991 9.99988 1.99991C6.83859 1.99991 4.24682 4.4587 4.02194 7.5638L4.2929 7.29284C4.68362 6.90213 5.31626 6.90213 5.70698 7.29284C6.09746 7.68356 6.09746 8.3162 5.70698 8.70692ZM19.707 7.29284L17.707 5.29293C17.3163 4.90222 16.6837 4.90222 16.2929 5.29293L14.293 7.29284C13.9023 7.68356 13.9023 8.3162 14.293 8.70692C14.6837 9.09763 15.3164 9.09763 15.7071 8.70692L15.9781 8.43596C15.7529 11.5411 13.1612 13.9999 9.99988 13.9999C8.42019 13.9999 6.92907 13.3915 5.80154 12.286C5.40698 11.8984 4.7741 11.9071 4.38746 12.2997C4.00082 12.6943 4.00706 13.3271 4.40114 13.7138C5.90498 15.1883 7.89339 16 9.99988 16C14.2781 16 17.7726 12.6218 17.9799 8.3942L18.2929 8.70716C18.4882 8.90252 18.7441 9.00019 18.9999 9.00019C19.2558 9.00019 19.5116 8.90252 19.707 8.70716C20.0977 8.3162 20.0977 7.68356 19.707 7.29284Z" fill="#F0B90B"/>
</svg>
