<svg width="80" height="81" viewBox="0 0 80 81" fill="none" xmlns="http://www.w3.org/2000/svg">
<rect x="0.5" y="1.07812" width="79" height="79" rx="11.5" fill="#150F3E"/>
<rect x="0.5" y="1.07812" width="79" height="79" rx="11.5" stroke="url(#paint0_linear_11_1982)"/>
<path d="M60.3041 20.7399C60.2117 20.5299 60.0437 20.3619 59.8421 20.2779C59.7329 20.2275 48.9805 15.7082 40.135 24.5453C38.4465 26.2337 36.8169 28.2246 35.3216 30.3247L33.2803 29.8543C30.1974 29.1402 27.0221 30.0475 24.7792 32.282L19.2098 37.8597C17.7314 39.3382 18.6806 41.8499 20.7387 42.0095L28.5846 42.6395C28.2402 43.5551 27.9462 44.454 27.7781 45.0504C27.6269 45.5796 27.6521 46.1256 27.8117 46.6297C26.3921 47.0161 25.0985 47.7217 24.3676 48.4525C22.7548 50.057 21.3183 57.088 21.0495 58.4825C20.9319 59.1545 21.5283 59.6669 22.0995 59.5325C23.494 59.2553 30.525 57.8189 32.1295 56.2144C32.8939 55.45 33.5827 54.1395 33.9608 52.7703C34.4984 52.9383 35.0444 52.9383 35.54 52.7955H35.5484C36.1448 52.6275 37.0185 52.3503 37.9509 51.989L38.5809 59.8349C38.7405 61.893 41.2606 62.8338 42.7307 61.3638L48.3085 55.786C50.5429 53.5515 51.4586 50.3678 50.7361 47.2849L50.2657 45.2436C52.3658 43.7484 54.3567 42.1187 56.0451 40.4302C64.8822 31.6015 60.3545 20.8492 60.3041 20.7399ZM20.4867 39.1282L26.0561 33.5504C27.8621 31.7443 30.4158 31.0219 32.8771 31.6015L34.2296 31.9123C32.2219 34.928 30.525 38.0866 29.2986 40.8923L20.8815 40.2202C20.3355 40.1698 20.1003 39.5062 20.4867 39.1282ZM30.8611 54.9543C30.0798 55.7356 26.2073 56.8192 23.0824 57.508C23.7628 54.3747 24.8464 50.5106 25.6361 49.7294C26.3165 49.0405 27.6437 48.4441 28.9374 48.2089L32.3815 51.653C32.3731 51.6866 32.3731 51.7202 32.3647 51.7622C32.1127 52.9971 31.4995 54.3159 30.8611 54.9543ZM34.0868 50.813L29.769 46.4953C29.517 46.2432 29.4162 45.8652 29.5086 45.5292C29.5842 45.2688 29.727 44.7816 29.9118 44.2356L36.3464 50.6702C35.96 50.8046 35.4476 50.9642 35.0528 51.0734C34.7168 51.1742 34.3472 51.0734 34.0868 50.813ZM48.9805 47.7049C49.5517 50.183 48.8293 52.7283 47.0316 54.5259L41.4538 60.1037C41.0674 60.4901 40.4122 60.2465 40.3618 59.7089L39.6898 51.2918C42.4955 50.0738 45.654 48.3685 48.6697 46.3608L48.9805 47.7049ZM38.1861 49.973L30.6006 42.3875C32.7427 37.1541 36.8337 30.3751 41.395 25.8137C46.6032 20.6055 53.4494 19.8243 58.7836 21.79C59.4137 23.554 61.9169 32.0299 54.7599 39.187C50.1985 43.7484 43.4195 47.8393 38.1861 49.973Z" fill="white"/>
<path d="M44.7551 27.0904C42.3442 29.5013 42.3442 33.4074 44.7551 35.8267C47.166 38.2376 51.0721 38.2376 53.4914 35.8267C55.9023 33.4158 55.9023 29.5013 53.4914 27.0904C51.0721 24.6795 47.166 24.6795 44.7551 27.0904ZM52.223 34.5583C50.5093 36.2719 47.7372 36.2719 46.0236 34.5583C44.3099 32.8446 44.3099 30.0725 46.0236 28.3588C47.7372 26.6452 50.5093 26.6452 52.223 28.3588C53.9282 30.0725 53.9282 32.853 52.223 34.5583Z" fill="white"/>
<defs>
<linearGradient id="paint0_linear_11_1982" x1="0" y1="40.5781" x2="80" y2="40.5781" gradientUnits="userSpaceOnUse">
<stop stop-color="#324AB9"/>
<stop offset="1" stop-color="#4B158E"/>
</linearGradient>
</defs>
</svg>
