<svg width="80" height="81" viewBox="0 0 80 81" fill="none" xmlns="http://www.w3.org/2000/svg">
<rect x="0.5" y="0.578125" width="79" height="79" rx="11.5" fill="url(#paint0_linear_11_1962)"/>
<rect x="0.5" y="0.578125" width="79" height="79" rx="11.5" stroke="url(#paint1_linear_11_1962)"/>
<path fill-rule="evenodd" clip-rule="evenodd" d="M40 20.2874C29.0699 20.2874 20.2093 29.148 20.2093 40.0781C20.2093 51.0082 29.0699 59.8688 40 59.8688C50.93 59.8688 59.7907 51.0082 59.7907 40.0781C59.7907 29.148 50.93 20.2874 40 20.2874ZM17 40.0781C17 27.3756 27.2975 17.0781 40 17.0781C52.7026 17.0781 63 27.3756 63 40.0781C63 52.7808 52.7026 63.0781 40 63.0781C27.2975 63.0781 17 52.7808 17 40.0781Z" fill="white"/>
<path fill-rule="evenodd" clip-rule="evenodd" d="M37.3408 27.1901C38.5336 25.1183 41.4673 25.1183 42.6603 27.1901L45.9229 32.857L52.0672 34.3444C54.3817 34.9048 55.15 37.7165 53.7084 39.4525L49.5425 44.4686L50.093 51.0984C50.2794 53.3438 48.0509 55.2587 45.7907 54.2579L40.0004 51.6936L34.2103 54.2579C31.9501 55.2587 29.7216 53.3438 29.908 51.0984L30.4584 44.4686L26.2926 39.4525C24.8509 37.7165 25.6191 34.9048 27.9338 34.3444L34.0781 32.857L37.3408 27.1901ZM40.0725 51.662C40.0723 51.662 40.0727 51.662 40.0725 51.662V51.662ZM40.0004 29.0025L36.8393 34.4932C36.4208 35.2202 35.7241 35.7605 34.8913 35.962L28.792 37.4388L32.935 42.4275C33.4719 43.0739 33.7255 43.9061 33.6567 44.7341L33.1172 51.2319L38.773 48.7274C39.556 48.3806 40.445 48.3806 41.2281 48.7274L46.8837 51.2319L46.3441 44.7341C46.2755 43.9061 46.529 43.0739 47.066 42.4275L51.209 37.4388L45.1096 35.962C44.2769 35.7605 43.5803 35.2202 43.1618 34.4932L40.0004 29.0025ZM32.9108 51.3233C32.9108 51.3233 32.9109 51.3233 32.9108 51.3233V51.3233Z" fill="white"/>
<defs>
<linearGradient id="paint0_linear_11_1962" x1="0" y1="40.0781" x2="80" y2="40.0781" gradientUnits="userSpaceOnUse">
<stop stop-color="#150F3E"/>
<stop offset="0.5" stop-color="#200F46"/>
<stop offset="1" stop-color="#3A126F"/>
</linearGradient>
<linearGradient id="paint1_linear_11_1962" x1="0" y1="40.0781" x2="80" y2="40.0781" gradientUnits="userSpaceOnUse">
<stop stop-color="#324AB9"/>
<stop offset="1" stop-color="#4B158E"/>
</linearGradient>
</defs>
</svg>
