<svg width="34" height="32" viewBox="0 0 34 32" fill="none" xmlns="http://www.w3.org/2000/svg">
<path d="M32.8645 0.808899C32.4244 0.44347 31.8934 0.203973 31.3278 0.115896C30.7623 0.0278188 30.1834 0.0944568 29.6527 0.308719L1.95607 11.4712C1.36376 11.7144 0.859568 12.1318 0.510415 12.6678C0.161262 13.2038 -0.0163398 13.8331 0.00118225 14.4722C0.0187043 15.1113 0.230522 15.73 0.60852 16.2461C0.986518 16.7623 1.51282 17.1514 2.11757 17.362L7.71999 19.307L10.8427 29.6152C10.8851 29.7529 10.9467 29.884 11.0256 30.0046C11.0376 30.0231 11.0545 30.0369 11.0672 30.0549C11.1584 30.1819 11.2686 30.2942 11.394 30.3878C11.4296 30.4149 11.4638 30.4403 11.5019 30.4644C11.6486 30.5616 11.8111 30.6326 11.9821 30.6744L12.0004 30.6759L12.0108 30.6804C12.1136 30.7013 12.2183 30.7119 12.3232 30.712C12.3333 30.712 12.3423 30.7072 12.3523 30.707C12.5106 30.7043 12.6676 30.677 12.8176 30.6263C12.8525 30.6144 12.8824 30.5946 12.9163 30.5803C13.0281 30.534 13.1341 30.4747 13.232 30.4035C13.3104 30.3376 13.3888 30.2717 13.4673 30.2058L17.6434 25.6031L23.8722 30.4197C24.4206 30.8459 25.0955 31.0776 25.7905 31.0781C26.5187 31.0772 27.2244 30.8264 27.7894 30.3677C28.3544 29.9091 28.7442 29.2705 28.8936 28.5591L33.936 3.84924C34.0503 3.2931 34.011 2.71642 33.8222 2.18088C33.6335 1.64534 33.3024 1.1711 32.8645 0.808899ZM12.936 19.7982C12.7217 20.0113 12.5753 20.2828 12.515 20.5786L12.0366 22.8989L10.8248 18.8984L17.1077 15.6325L12.936 19.7982ZM25.7664 27.9805L18.4056 22.2886C18.0977 22.051 17.7114 21.938 17.3237 21.9721C16.936 22.0061 16.5754 22.1848 16.3138 22.4724L14.9763 23.946L15.449 21.6528L26.3957 10.7254C26.657 10.4649 26.8162 10.1196 26.8445 9.75206C26.8727 9.38452 26.7682 9.01903 26.5498 8.72179C26.3314 8.42455 26.0136 8.21522 25.6539 8.13171C25.2942 8.0482 24.9165 8.09605 24.5891 8.26657L8.87873 16.4319L3.12275 14.3292L30.9084 3.233L25.7664 27.9805Z" fill="white"/>
</svg>
