<svg width="20" height="16" viewBox="0 0 20 16" fill="none" xmlns="http://www.w3.org/2000/svg">
<path d="M10.2867 8.19412C10.7724 7.78659 11.162 7.28255 11.429 6.7162C11.6961 6.14985 11.8343 5.53445 11.8343 4.91176C11.8343 3.74169 11.3547 2.61954 10.5011 1.79218C9.64751 0.96481 8.48979 0.5 7.28262 0.5C6.07545 0.5 4.91772 0.96481 4.06412 1.79218C3.21053 2.61954 2.73098 3.74169 2.73098 4.91176C2.73097 5.53445 2.86917 6.14985 3.13619 6.7162C3.40321 7.28255 3.79281 7.78659 4.27854 8.19412C3.00421 8.75343 1.92303 9.65664 1.16429 10.7958C0.405546 11.9349 0.00133987 13.2617 0 14.6176C0 14.8517 0.0959091 15.0761 0.266629 15.2416C0.437348 15.407 0.668893 15.5 0.910327 15.5C1.15176 15.5 1.38331 15.407 1.55403 15.2416C1.72474 15.0761 1.82065 14.8517 1.82065 14.6176C1.82065 13.2136 2.39611 11.867 3.42043 10.8741C4.44474 9.8813 5.83401 9.32353 7.28262 9.32353C8.73122 9.32353 10.1205 9.8813 11.1448 10.8741C12.1691 11.867 12.7446 13.2136 12.7446 14.6176C12.7446 14.8517 12.8405 15.0761 13.0112 15.2416C13.1819 15.407 13.4135 15.5 13.6549 15.5C13.8963 15.5 14.1279 15.407 14.2986 15.2416C14.4693 15.0761 14.5652 14.8517 14.5652 14.6176C14.5639 13.2617 14.1597 11.9349 13.4009 10.7958C12.6422 9.65664 11.561 8.75343 10.2867 8.19412ZM7.28262 7.55882C6.74248 7.55882 6.21447 7.40358 5.76536 7.11271C5.31626 6.82185 4.96622 6.40844 4.75952 5.92475C4.55282 5.44106 4.49873 4.90883 4.60411 4.39535C4.70949 3.88187 4.96959 3.41021 5.35152 3.04001C5.73346 2.66981 6.22007 2.41771 6.74983 2.31557C7.27959 2.21343 7.8287 2.26585 8.32772 2.4662C8.82674 2.66655 9.25326 3.00583 9.55334 3.44114C9.85343 3.87644 10.0136 4.38823 10.0136 4.91176C10.0136 5.61381 9.72587 6.2871 9.21371 6.78352C8.70155 7.27994 8.00692 7.55882 7.28262 7.55882ZM16.1492 7.84118C16.7318 7.20529 17.1123 6.41975 17.2451 5.57912C17.3778 4.73849 17.257 3.87859 16.8973 3.10294C16.5376 2.32729 15.9542 1.66894 15.2175 1.20714C14.4807 0.745338 13.622 0.499773 12.7446 0.5C12.5031 0.5 12.2716 0.592962 12.1009 0.758435C11.9302 0.923909 11.8343 1.14834 11.8343 1.38235C11.8343 1.61637 11.9302 1.8408 12.1009 2.00627C12.2716 2.17174 12.5031 2.26471 12.7446 2.26471C13.4689 2.26471 14.1635 2.54359 14.6757 3.04001C15.1878 3.53643 15.4756 4.20972 15.4756 4.91176C15.4743 5.37521 15.3475 5.83021 15.1078 6.23125C14.8682 6.6323 14.5242 6.96534 14.1101 7.19706C13.9751 7.27252 13.8624 7.38029 13.7827 7.51007C13.703 7.63984 13.659 7.78726 13.6549 7.93824C13.6511 8.08803 13.6867 8.23629 13.7584 8.36905C13.83 8.50181 13.9354 8.61469 14.0646 8.69706L14.4196 8.92647L14.5379 8.98824C15.6352 9.49269 16.561 10.2906 17.2061 11.2879C17.8512 12.2853 18.1888 13.4405 18.1792 14.6176C18.1792 14.8517 18.2751 15.0761 18.4459 15.2416C18.6166 15.407 18.8481 15.5 19.0896 15.5C19.331 15.5 19.5625 15.407 19.7333 15.2416C19.904 15.0761 19.9999 14.8517 19.9999 14.6176C20.0073 13.2636 19.6574 11.9302 18.9835 10.7442C18.3095 9.55812 17.3339 8.55881 16.1492 7.84118Z" fill="#F0B90B"/>
</svg>
