<svg width="80" height="81" viewBox="0 0 80 81" fill="none" xmlns="http://www.w3.org/2000/svg">
<rect x="0.5" y="1.07812" width="79" height="79" rx="11.5" fill="url(#paint0_linear_11_2013)"/>
<rect x="0.5" y="1.07812" width="79" height="79" rx="11.5" stroke="url(#paint1_linear_11_2013)"/>
<path d="M52.1272 40.7826C51.8199 40.7826 51.5251 40.6605 51.3078 40.4432C51.0905 40.2259 50.9684 39.9311 50.9684 39.6238V36.2864C51.0119 35.6297 50.7951 34.9823 50.3648 34.4844C49.9345 33.9864 49.3254 33.6779 48.6693 33.6257H28.6171C28.3097 33.6257 28.015 33.5037 27.7977 33.2863C27.5803 33.069 27.4583 32.7743 27.4583 32.4669C27.4583 32.1596 27.5803 31.8648 27.7977 31.6475C28.015 31.4302 28.3097 31.3081 28.6171 31.3081H48.6693C49.9423 31.354 51.1452 31.9029 52.0141 32.8344C52.8831 33.7659 53.3471 35.004 53.3046 36.2771V39.6145C53.3058 39.7691 53.2762 39.9223 53.2173 40.0652C53.1585 40.2081 53.0717 40.3378 52.962 40.4466C52.8523 40.5554 52.7219 40.6412 52.5786 40.6989C52.4352 40.7566 52.2817 40.7851 52.1272 40.7826Z" fill="white"/>
<path d="M48.6693 55.5784H28.6171C27.344 55.5324 26.1412 54.9836 25.2722 54.0521C24.4033 53.1206 23.9392 51.8825 23.9818 50.6093V29.695C23.9818 29.3876 24.1039 29.0929 24.3212 28.8755C24.5385 28.6582 24.8333 28.5361 25.1406 28.5361C25.4479 28.5361 25.7427 28.6582 25.96 28.8755C26.1773 29.0929 26.2994 29.3876 26.2994 29.695V50.6093C26.256 51.2651 26.4731 51.9114 26.9037 52.4079C27.3342 52.9044 27.9433 53.2109 28.5985 53.2607H48.6693C49.3245 53.2109 49.9336 52.9044 50.3641 52.4079C50.7947 51.9114 51.0118 51.2651 50.9684 50.6093V48.2546C50.9684 47.9473 51.0905 47.6525 51.3078 47.4352C51.5251 47.2179 51.8199 47.0958 52.1272 47.0958C52.4345 47.0958 52.7293 47.2179 52.9466 47.4352C53.1639 47.6525 53.286 47.9473 53.286 48.2546V50.6093C53.3287 51.8794 52.8671 53.1148 52.0022 54.0457C51.1372 54.9767 49.939 55.5277 48.6693 55.5784Z" fill="white"/>
<path d="M48.1965 33.6255C47.8923 33.6255 47.6004 33.506 47.3836 33.2926C47.1668 33.0793 47.0425 32.7893 47.0377 32.4852V29.9172C47.0159 29.3672 46.7776 28.8481 46.3748 28.473C45.9719 28.0979 45.4371 27.8973 44.8869 27.9148H28.1999C27.7268 27.8972 27.2661 28.0679 26.9185 28.3893C26.571 28.7108 26.3651 29.1569 26.3458 29.6299C26.3651 30.1029 26.571 30.5489 26.9185 30.8704C27.2661 31.1918 27.7268 31.3625 28.1999 31.3449H38.3975C38.7048 31.3449 38.9996 31.467 39.2169 31.6843C39.4342 31.9016 39.5563 32.1964 39.5563 32.5037C39.5563 32.8111 39.4342 33.1058 39.2169 33.3231C38.9996 33.5405 38.7048 33.6626 38.3975 33.6626H28.1721C27.632 33.6711 27.0955 33.5731 26.5933 33.374C26.0911 33.1749 25.6332 32.8788 25.2457 32.5024C24.8582 32.1261 24.5487 31.677 24.335 31.1809C24.1213 30.6848 24.0076 30.1514 24.0003 29.6113C24.0198 28.5237 24.47 27.4882 25.2522 26.7322C26.0343 25.9761 27.0844 25.5613 28.1721 25.5786H44.8591C45.4397 25.5663 46.017 25.669 46.5578 25.8808C47.0985 26.0925 47.5921 26.4091 48.01 26.8124C48.4279 27.2156 48.7619 27.6976 48.9928 28.2304C49.2237 28.7633 49.3469 29.3366 49.3553 29.9172V32.4852C49.3504 32.7893 49.2262 33.0793 49.0094 33.2926C48.7926 33.506 48.5006 33.6255 48.1965 33.6255ZM52.8781 49.3854H46.4536C45.1987 49.4103 43.9853 48.9361 43.0797 48.067C42.1741 47.1979 41.6504 46.005 41.6237 44.7502V43.0722C41.6504 41.8173 42.1741 40.6244 43.0797 39.7553C43.9853 38.8862 45.1987 38.412 46.4536 38.4369H52.943C53.3484 38.4381 53.7496 38.5192 54.1237 38.6754C54.4978 38.8317 54.8374 39.0601 55.1232 39.3476C55.409 39.6352 55.6354 39.9762 55.7894 40.3512C55.9434 40.7262 56.0221 41.1279 56.0208 41.5333V46.3447C56.0062 47.1643 55.6672 47.9447 55.078 48.5147C54.4889 49.0847 53.6978 49.3978 52.8781 49.3854ZM46.4536 40.7638C45.8148 40.7387 45.1921 40.9673 44.7214 41.3998C44.2506 41.8323 43.9702 42.4336 43.9413 43.0722V44.7965C43.9702 45.4351 44.2506 46.0363 44.7214 46.4688C45.1921 46.9014 45.8148 47.13 46.4536 47.1049H52.8781C53.0806 47.1049 53.2749 47.0251 53.419 46.8828C53.563 46.7405 53.6451 46.5471 53.6476 46.3447V41.5333C53.642 41.3482 53.5657 41.1724 53.4344 41.0419C53.3648 40.9693 53.2814 40.9113 53.189 40.8715C53.0967 40.8317 52.9972 40.8108 52.8967 40.8102L46.4536 40.7638Z" fill="white"/>
<path d="M47.0934 45.0935C47.7334 45.0935 48.2522 44.5747 48.2522 43.9347C48.2522 43.2947 47.7334 42.7759 47.0934 42.7759C46.4534 42.7759 45.9345 43.2947 45.9345 43.9347C45.9345 44.5747 46.4534 45.0935 47.0934 45.0935Z" fill="white"/>
<defs>
<linearGradient id="paint0_linear_11_2013" x1="0" y1="40.5781" x2="80" y2="40.5781" gradientUnits="userSpaceOnUse">
<stop stop-color="#150F3E"/>
<stop offset="0.5" stop-color="#200F46"/>
<stop offset="1" stop-color="#3A126F"/>
</linearGradient>
<linearGradient id="paint1_linear_11_2013" x1="0" y1="40.5781" x2="80" y2="40.5781" gradientUnits="userSpaceOnUse">
<stop stop-color="#324AB9"/>
<stop offset="1" stop-color="#4B158E"/>
</linearGradient>
</defs>
</svg>
